{
	"asset":{
		"generator":"Khronos glTF Blender I/O v4.2.70",
		"version":"2.0"
	},
	"extensionsUsed":[
		"KHR_lights_punctual"
	],
	"extensionsRequired":[
		"KHR_lights_punctual"
	],
	"extensions":{
		"KHR_lights_punctual":{
			"lights":[
				{
					"color":[
						1,
						1,
						1
					],
					"intensity":54351.41306588226,
					"type":"point",
					"name":"Light"
				}
			]
		}
	},
	"scene":0,
	"scenes":[
		{
			"name":"Scene",
			"nodes":[
				0,
				1,
				2,
				3,
				4,
				5,
				6,
				7
			]
		}
	],
	"nodes":[
		{
			"extensions":{
				"KHR_lights_punctual":{
					"light":0
				}
			},
			"name":"Light",
			"rotation":[
				-0.28416627645492554,
				0.7269423007965088,
				0.34203392267227173,
				0.5232754945755005
			],
			"translation":[
				-6.483227729797363,
				6.004110336303711,
				8.499364852905273
			]
		},
		{
			"name":"col-colonly",
			"rotation":[
				-0.7071068286895752,
				0,
				0,
				0.7071068286895752
			]
		},
		{
			"mesh":0,
			"name":"arm_right",
			"rotation":[
				-0.7071068286895752,
				0,
				0,
				0.7071068286895752
			],
			"translation":[
				-0.34744057059288025,
				-1.2115740776062012,
				0.048152994364500046
			]
		},
		{
			"mesh":1,
			"name":"head",
			"rotation":[
				-0.7071068286895752,
				0,
				0,
				0.7071068286895752
			],
			"translation":[
				0.1689986139535904,
				0.5764227509498596,
				-0.05611953139305115
			]
		},
		{
			"mesh":2,
			"name":"torso",
			"rotation":[
				-0.7071068286895752,
				0,
				0,
				0.7071068286895752
			],
			"translation":[
				0.08725067228078842,
				0.2981314957141876,
				-0.027615392580628395
			]
		},
		{
			"mesh":3,
			"name":"left_arm",
			"rotation":[
				-0.7071068286895752,
				0,
				0,
				0.7071068286895752
			],
			"translation":[
				-0.20201493799686432,
				-0.6954641342163086,
				0.0507870689034462
			]
		},
		{
			"mesh":4,
			"name":"leg_right",
			"rotation":[
				-0.7071068286895752,
				0,
				0,
				0.7071068286895752
			],
			"translation":[
				0.14908285439014435,
				-0.137073814868927,
				-1.6859184503555298
			]
		},
		{
			"mesh":5,
			"name":"leg_left",
			"rotation":[
				-0.7071068286895752,
				0,
				0,
				0.7071068286895752
			],
			"translation":[
				-0.19385021924972534,
				0.07438512146472931,
				1.928931474685669
			]
		}
	],
	"animations":[
		{
			"channels":[
				{
					"sampler":0,
					"target":{
						"node":2,
						"path":"translation"
					}
				}
			],
			"name":"attac.002",
			"samplers":[
				{
					"input":30,
					"interpolation":"STEP",
					"output":31
				}
			]
		},
		{
			"channels":[
				{
					"sampler":0,
					"target":{
						"node":3,
						"path":"translation"
					}
				}
			],
			"name":"attac.003",
			"samplers":[
				{
					"input":30,
					"interpolation":"STEP",
					"output":32
				}
			]
		},
		{
			"channels":[
				{
					"sampler":0,
					"target":{
						"node":4,
						"path":"translation"
					}
				}
			],
			"name":"attac.004",
			"samplers":[
				{
					"input":30,
					"interpolation":"STEP",
					"output":33
				}
			]
		},
		{
			"channels":[
				{
					"sampler":0,
					"target":{
						"node":5,
						"path":"translation"
					}
				}
			],
			"name":"attac.005",
			"samplers":[
				{
					"input":30,
					"interpolation":"STEP",
					"output":34
				}
			]
		},
		{
			"channels":[
				{
					"sampler":0,
					"target":{
						"node":6,
						"path":"translation"
					}
				}
			],
			"name":"attac.006",
			"samplers":[
				{
					"input":30,
					"interpolation":"STEP",
					"output":35
				}
			]
		},
		{
			"channels":[
				{
					"sampler":0,
					"target":{
						"node":7,
						"path":"translation"
					}
				}
			],
			"name":"attac.007",
			"samplers":[
				{
					"input":30,
					"interpolation":"STEP",
					"output":36
				}
			]
		}
	],
	"materials":[
		{
			"doubleSided":true,
			"name":"Material.001"
		}
	],
	"meshes":[
		{
			"name":"Plane.002",
			"primitives":[
				{
					"attributes":{
						"POSITION":0,
						"NORMAL":1,
						"TEXCOORD_0":2,
						"TANGENT":3
					},
					"indices":4,
					"material":0
				}
			]
		},
		{
			"name":"Plane.003",
			"primitives":[
				{
					"attributes":{
						"POSITION":5,
						"NORMAL":6,
						"TEXCOORD_0":7,
						"TANGENT":8
					},
					"indices":9,
					"material":0
				}
			]
		},
		{
			"name":"Plane.004",
			"primitives":[
				{
					"attributes":{
						"POSITION":10,
						"NORMAL":11,
						"TEXCOORD_0":12,
						"TANGENT":13
					},
					"indices":14,
					"material":0
				}
			]
		},
		{
			"name":"Plane.005",
			"primitives":[
				{
					"attributes":{
						"POSITION":15,
						"NORMAL":16,
						"TEXCOORD_0":17,
						"TANGENT":18
					},
					"indices":19,
					"material":0
				}
			]
		},
		{
			"name":"Plane.006",
			"primitives":[
				{
					"attributes":{
						"POSITION":20,
						"NORMAL":21,
						"TEXCOORD_0":22,
						"TANGENT":23
					},
					"indices":24,
					"material":0
				}
			]
		},
		{
			"name":"Plane.007",
			"primitives":[
				{
					"attributes":{
						"POSITION":25,
						"NORMAL":26,
						"TEXCOORD_0":27,
						"TANGENT":28
					},
					"indices":29,
					"material":0
				}
			]
		}
	],
	"accessors":[
		{
			"bufferView":0,
			"componentType":5126,
			"count":56,
			"max":[
				0.5407872796058655,
				6.954005241394043,
				0.8363795280456543
			],
			"min":[
				-0.5680052638053894,
				2.9714934825897217,
				-0.6420395970344543
			],
			"type":"VEC3"
		},
		{
			"bufferView":1,
			"componentType":5126,
			"count":56,
			"type":"VEC3"
		},
		{
			"bufferView":2,
			"componentType":5126,
			"count":56,
			"type":"VEC2"
		},
		{
			"bufferView":3,
			"componentType":5126,
			"count":56,
			"type":"VEC4"
		},
		{
			"bufferView":4,
			"componentType":5123,
			"count":84,
			"type":"SCALAR"
		},
		{
			"bufferView":5,
			"componentType":5126,
			"count":86,
			"max":[
				0.9467446208000183,
				0.8845853805541992,
				3.6384823322296143
			],
			"min":[
				-1.0223500728607178,
				-0.8845853805541992,
				1.8653053045272827
			],
			"type":"VEC3"
		},
		{
			"bufferView":6,
			"componentType":5126,
			"count":86,
			"type":"VEC3"
		},
		{
			"bufferView":7,
			"componentType":5126,
			"count":86,
			"type":"VEC2"
		},
		{
			"bufferView":8,
			"componentType":5126,
			"count":86,
			"type":"VEC4"
		},
		{
			"bufferView":9,
			"componentType":5123,
			"count":150,
			"type":"SCALAR"
		},
		{
			"bufferView":10,
			"componentType":5126,
			"count":230,
			"max":[
				1,
				2.6326804161071777,
				1.4914360046386719
			],
			"min":[
				-1,
				-2.7724108695983887,
				-5.469693183898926
			],
			"type":"VEC3"
		},
		{
			"bufferView":11,
			"componentType":5126,
			"count":230,
			"type":"VEC3"
		},
		{
			"bufferView":12,
			"componentType":5126,
			"count":230,
			"type":"VEC2"
		},
		{
			"bufferView":13,
			"componentType":5126,
			"count":230,
			"type":"VEC4"
		},
		{
			"bufferView":14,
			"componentType":5123,
			"count":366,
			"type":"SCALAR"
		},
		{
			"bufferView":15,
			"componentType":5126,
			"count":52,
			"max":[
				0.5407872796058655,
				-2.9714934825897217,
				0.8363795280456543
			],
			"min":[
				-0.5680052638053894,
				-6.954005241394043,
				-0.6420395970344543
			],
			"type":"VEC3"
		},
		{
			"bufferView":16,
			"componentType":5126,
			"count":52,
			"type":"VEC3"
		},
		{
			"bufferView":17,
			"componentType":5126,
			"count":52,
			"type":"VEC2"
		},
		{
			"bufferView":18,
			"componentType":5126,
			"count":52,
			"type":"VEC4"
		},
		{
			"bufferView":19,
			"componentType":5123,
			"count":78,
			"type":"SCALAR"
		},
		{
			"bufferView":20,
			"componentType":5126,
			"count":84,
			"max":[
				0.7168338894844055,
				1.3931876420974731,
				-4.197528839111328
			],
			"min":[
				-1.8063881397247314,
				0.2080676108598709,
				-8.679610252380371
			],
			"type":"VEC3"
		},
		{
			"bufferView":21,
			"componentType":5126,
			"count":84,
			"type":"VEC3"
		},
		{
			"bufferView":22,
			"componentType":5126,
			"count":84,
			"type":"VEC2"
		},
		{
			"bufferView":23,
			"componentType":5126,
			"count":84,
			"type":"VEC4"
		},
		{
			"bufferView":24,
			"componentType":5123,
			"count":132,
			"type":"SCALAR"
		},
		{
			"bufferView":25,
			"componentType":5126,
			"count":56,
			"max":[
				0.6344542503356934,
				-0.4220494031906128,
				-5.78300666809082
			],
			"min":[
				-1.8063881397247314,
				-1.3931876420974731,
				-8.679610252380371
			],
			"type":"VEC3"
		},
		{
			"bufferView":26,
			"componentType":5126,
			"count":56,
			"type":"VEC3"
		},
		{
			"bufferView":27,
			"componentType":5126,
			"count":56,
			"type":"VEC2"
		},
		{
			"bufferView":28,
			"componentType":5126,
			"count":56,
			"type":"VEC4"
		},
		{
			"bufferView":29,
			"componentType":5123,
			"count":84,
			"type":"SCALAR"
		},
		{
			"bufferView":30,
			"componentType":5126,
			"count":2,
			"max":[
				0.4166666666666667
			],
			"min":[
				0.041666666666666664
			],
			"type":"SCALAR"
		},
		{
			"bufferView":31,
			"componentType":5126,
			"count":2,
			"type":"VEC3"
		},
		{
			"bufferView":32,
			"componentType":5126,
			"count":2,
			"type":"VEC3"
		},
		{
			"bufferView":33,
			"componentType":5126,
			"count":2,
			"type":"VEC3"
		},
		{
			"bufferView":34,
			"componentType":5126,
			"count":2,
			"type":"VEC3"
		},
		{
			"bufferView":35,
			"componentType":5126,
			"count":2,
			"type":"VEC3"
		},
		{
			"bufferView":36,
			"componentType":5126,
			"count":2,
			"type":"VEC3"
		}
	],
	"bufferViews":[
		{
			"buffer":0,
			"byteLength":672,
			"byteOffset":0,
			"target":34962
		},
		{
			"buffer":0,
			"byteLength":672,
			"byteOffset":672,
			"target":34962
		},
		{
			"buffer":0,
			"byteLength":448,
			"byteOffset":1344,
			"target":34962
		},
		{
			"buffer":0,
			"byteLength":896,
			"byteOffset":1792,
			"target":34962
		},
		{
			"buffer":0,
			"byteLength":168,
			"byteOffset":2688,
			"target":34963
		},
		{
			"buffer":0,
			"byteLength":1032,
			"byteOffset":2856,
			"target":34962
		},
		{
			"buffer":0,
			"byteLength":1032,
			"byteOffset":3888,
			"target":34962
		},
		{
			"buffer":0,
			"byteLength":688,
			"byteOffset":4920,
			"target":34962
		},
		{
			"buffer":0,
			"byteLength":1376,
			"byteOffset":5608,
			"target":34962
		},
		{
			"buffer":0,
			"byteLength":300,
			"byteOffset":6984,
			"target":34963
		},
		{
			"buffer":0,
			"byteLength":2760,
			"byteOffset":7284,
			"target":34962
		},
		{
			"buffer":0,
			"byteLength":2760,
			"byteOffset":10044,
			"target":34962
		},
		{
			"buffer":0,
			"byteLength":1840,
			"byteOffset":12804,
			"target":34962
		},
		{
			"buffer":0,
			"byteLength":3680,
			"byteOffset":14644,
			"target":34962
		},
		{
			"buffer":0,
			"byteLength":732,
			"byteOffset":18324,
			"target":34963
		},
		{
			"buffer":0,
			"byteLength":624,
			"byteOffset":19056,
			"target":34962
		},
		{
			"buffer":0,
			"byteLength":624,
			"byteOffset":19680,
			"target":34962
		},
		{
			"buffer":0,
			"byteLength":416,
			"byteOffset":20304,
			"target":34962
		},
		{
			"buffer":0,
			"byteLength":832,
			"byteOffset":20720,
			"target":34962
		},
		{
			"buffer":0,
			"byteLength":156,
			"byteOffset":21552,
			"target":34963
		},
		{
			"buffer":0,
			"byteLength":1008,
			"byteOffset":21708,
			"target":34962
		},
		{
			"buffer":0,
			"byteLength":1008,
			"byteOffset":22716,
			"target":34962
		},
		{
			"buffer":0,
			"byteLength":672,
			"byteOffset":23724,
			"target":34962
		},
		{
			"buffer":0,
			"byteLength":1344,
			"byteOffset":24396,
			"target":34962
		},
		{
			"buffer":0,
			"byteLength":264,
			"byteOffset":25740,
			"target":34963
		},
		{
			"buffer":0,
			"byteLength":672,
			"byteOffset":26004,
			"target":34962
		},
		{
			"buffer":0,
			"byteLength":672,
			"byteOffset":26676,
			"target":34962
		},
		{
			"buffer":0,
			"byteLength":448,
			"byteOffset":27348,
			"target":34962
		},
		{
			"buffer":0,
			"byteLength":896,
			"byteOffset":27796,
			"target":34962
		},
		{
			"buffer":0,
			"byteLength":168,
			"byteOffset":28692,
			"target":34963
		},
		{
			"buffer":0,
			"byteLength":8,
			"byteOffset":28860
		},
		{
			"buffer":0,
			"byteLength":24,
			"byteOffset":28868
		},
		{
			"buffer":0,
			"byteLength":24,
			"byteOffset":28892
		},
		{
			"buffer":0,
			"byteLength":24,
			"byteOffset":28916
		},
		{
			"buffer":0,
			"byteLength":24,
			"byteOffset":28940
		},
		{
			"buffer":0,
			"byteLength":24,
			"byteOffset":28964
		},
		{
			"buffer":0,
			"byteLength":24,
			"byteOffset":28988
		}
	],
	"buffers":[
		{
			"byteLength":29012,
			"uri":"badguy_gibs-6cd905b077e5491c65da3666597936dd.bin"
		}
	]
}
