{
	"asset":{
		"generator":"Khronos glTF Blender I/O v4.2.70",
		"version":"2.0"
	},
	"extensionsUsed":[
		"KHR_lights_punctual"
	],
	"extensionsRequired":[
		"KHR_lights_punctual"
	],
	"extensions":{
		"KHR_lights_punctual":{
			"lights":[
				{
					"color":[
						1,
						1,
						1
					],
					"intensity":54351.41306588226,
					"type":"point",
					"name":"Light"
				}
			]
		}
	},
	"scene":0,
	"scenes":[
		{
			"name":"Scene",
			"nodes":[
				0,
				1,
				2,
				3
			]
		}
	],
	"nodes":[
		{
			"extensions":{
				"KHR_lights_punctual":{
					"light":0
				}
			},
			"name":"Light",
			"rotation":[
				-0.28416627645492554,
				0.7269423007965088,
				0.34203392267227173,
				0.5232754945755005
			],
			"translation":[
				-6.483227729797363,
				6.004110336303711,
				8.499364852905273
			]
		},
		{
			"name":"col-colonly",
			"rotation":[
				-0.7071068286895752,
				0,
				0,
				0.7071068286895752
			]
		},
		{
			"mesh":0,
			"name":"arm_right",
			"rotation":[
				-0.7071068286895752,
				0,
				0,
				0.7071068286895752
			],
			"translation":[
				1.1581248044967651,
				0.5787174701690674,
				-1.8604012727737427
			]
		},
		{
			"mesh":1,
			"name":"arm_right.001",
			"rotation":[
				-0.7071068286895752,
				0,
				0,
				0.7071068286895752
			],
			"translation":[
				1.1581248044967651,
				0.5787174701690674,
				-1.8604012727737427
			]
		}
	],
	"animations":[
		{
			"channels":[
				{
					"sampler":0,
					"target":{
						"node":2,
						"path":"translation"
					}
				}
			],
			"name":"attac.002",
			"samplers":[
				{
					"input":9,
					"interpolation":"STEP",
					"output":10
				}
			]
		},
		{
			"channels":[
				{
					"sampler":0,
					"target":{
						"node":3,
						"path":"translation"
					}
				}
			],
			"name":"attac.008",
			"samplers":[
				{
					"input":9,
					"interpolation":"STEP",
					"output":11
				}
			]
		}
	],
	"materials":[
		{
			"doubleSided":true,
			"name":"Material.001"
		}
	],
	"meshes":[
		{
			"name":"Plane.002",
			"primitives":[
				{
					"attributes":{
						"POSITION":0,
						"NORMAL":1,
						"TEXCOORD_0":2,
						"TANGENT":3
					},
					"indices":4,
					"material":0
				}
			]
		},
		{
			"name":"Plane.008",
			"primitives":[
				{
					"attributes":{
						"POSITION":5,
						"NORMAL":6,
						"TEXCOORD_0":7,
						"TANGENT":8
					},
					"indices":4,
					"material":0
				}
			]
		}
	],
	"accessors":[
		{
			"bufferView":0,
			"componentType":5126,
			"count":56,
			"max":[
				0.5407872796058655,
				6.954005241394043,
				0.8363795280456543
			],
			"min":[
				-0.5680052638053894,
				2.9714934825897217,
				-0.6420395970344543
			],
			"type":"VEC3"
		},
		{
			"bufferView":1,
			"componentType":5126,
			"count":56,
			"type":"VEC3"
		},
		{
			"bufferView":2,
			"componentType":5126,
			"count":56,
			"type":"VEC2"
		},
		{
			"bufferView":3,
			"componentType":5126,
			"count":56,
			"type":"VEC4"
		},
		{
			"bufferView":4,
			"componentType":5123,
			"count":84,
			"type":"SCALAR"
		},
		{
			"bufferView":5,
			"componentType":5126,
			"count":56,
			"max":[
				0.5407872796058655,
				6.954005241394043,
				0.8363795280456543
			],
			"min":[
				-0.5680052638053894,
				2.9714934825897217,
				-0.6420395970344543
			],
			"type":"VEC3"
		},
		{
			"bufferView":6,
			"componentType":5126,
			"count":56,
			"type":"VEC3"
		},
		{
			"bufferView":7,
			"componentType":5126,
			"count":56,
			"type":"VEC2"
		},
		{
			"bufferView":8,
			"componentType":5126,
			"count":56,
			"type":"VEC4"
		},
		{
			"bufferView":9,
			"componentType":5126,
			"count":2,
			"max":[
				0.4166666666666667
			],
			"min":[
				0.041666666666666664
			],
			"type":"SCALAR"
		},
		{
			"bufferView":10,
			"componentType":5126,
			"count":2,
			"type":"VEC3"
		},
		{
			"bufferView":11,
			"componentType":5126,
			"count":2,
			"type":"VEC3"
		}
	],
	"bufferViews":[
		{
			"buffer":0,
			"byteLength":672,
			"byteOffset":0,
			"target":34962
		},
		{
			"buffer":0,
			"byteLength":672,
			"byteOffset":672,
			"target":34962
		},
		{
			"buffer":0,
			"byteLength":448,
			"byteOffset":1344,
			"target":34962
		},
		{
			"buffer":0,
			"byteLength":896,
			"byteOffset":1792,
			"target":34962
		},
		{
			"buffer":0,
			"byteLength":168,
			"byteOffset":2688,
			"target":34963
		},
		{
			"buffer":0,
			"byteLength":672,
			"byteOffset":2856,
			"target":34962
		},
		{
			"buffer":0,
			"byteLength":672,
			"byteOffset":3528,
			"target":34962
		},
		{
			"buffer":0,
			"byteLength":448,
			"byteOffset":4200,
			"target":34962
		},
		{
			"buffer":0,
			"byteLength":896,
			"byteOffset":4648,
			"target":34962
		},
		{
			"buffer":0,
			"byteLength":8,
			"byteOffset":5544
		},
		{
			"buffer":0,
			"byteLength":24,
			"byteOffset":5552
		},
		{
			"buffer":0,
			"byteLength":24,
			"byteOffset":5576
		}
	],
	"buffers":[
		{
			"byteLength":5600,
			"uri":"badguy_gibs_arm_right-73e0fc77663fe1b8ba835202d919f057.bin"
		}
	]
}
