{
	"asset":{
		"generator":"Khronos glTF Blender I/O v4.2.70",
		"version":"2.0"
	},
	"extensionsUsed":[
		"KHR_lights_punctual"
	],
	"extensionsRequired":[
		"KHR_lights_punctual"
	],
	"extensions":{
		"KHR_lights_punctual":{
			"lights":[
				{
					"color":[
						1,
						1,
						1
					],
					"intensity":54351.41306588226,
					"type":"point",
					"name":"Light"
				},
				{
					"color":[
						1,
						1,
						1
					],
					"intensity":54351.41306588226,
					"type":"point",
					"name":"Light.001"
				},
				{
					"color":[
						1,
						1,
						1
					],
					"intensity":54351.41306588226,
					"type":"point",
					"name":"Light.002"
				},
				{
					"color":[
						1,
						1,
						1
					],
					"intensity":54351.41306588226,
					"type":"point",
					"name":"Light.003"
				},
				{
					"color":[
						1,
						1,
						1
					],
					"intensity":54351.41306588226,
					"type":"point",
					"name":"Light.004"
				},
				{
					"color":[
						1,
						1,
						1
					],
					"intensity":54351.41306588226,
					"type":"point",
					"name":"Light.005"
				}
			]
		}
	},
	"scene":0,
	"scenes":[
		{
			"name":"Scene",
			"nodes":[
				0,
				1,
				2,
				3,
				4,
				5,
				6,
				7
			]
		}
	],
	"nodes":[
		{
			"extensions":{
				"KHR_lights_punctual":{
					"light":0
				}
			},
			"name":"Light",
			"rotation":[
				-0.28416627645492554,
				0.7269423007965088,
				0.34203392267227173,
				0.5232754945755005
			],
			"translation":[
				7.073687553405762,
				0.6480722427368164,
				-3.386983871459961
			]
		},
		{
			"camera":0,
			"name":"Camera",
			"rotation":[
				-0.20997299253940582,
				0.3857799470424652,
				0.09062844514846802,
				0.8937962055206299
			],
			"translation":[
				7.358891487121582,
				4.958309173583984,
				6.925790786743164
			]
		},
		{
			"mesh":0,
			"name":"Cylinder",
			"rotation":[
				0.7071068286895752,
				0,
				0,
				0.7071068286895752
			]
		},
		{
			"extensions":{
				"KHR_lights_punctual":{
					"light":1
				}
			},
			"name":"Light.001",
			"rotation":[
				-0.28416627645492554,
				0.7269423007965088,
				0.34203392267227173,
				0.5232754945755005
			],
			"translation":[
				9.126729965209961,
				0.6480722427368164,
				9.506126403808594
			]
		},
		{
			"extensions":{
				"KHR_lights_punctual":{
					"light":2
				}
			},
			"name":"Light.002",
			"rotation":[
				-0.28416627645492554,
				0.7269423007965088,
				0.34203392267227173,
				0.5232754945755005
			],
			"translation":[
				-7.995647430419922,
				0.6480722427368164,
				11.148560523986816
			]
		},
		{
			"extensions":{
				"KHR_lights_punctual":{
					"light":3
				}
			},
			"name":"Light.003",
			"rotation":[
				-0.28416627645492554,
				0.7269423007965088,
				0.34203392267227173,
				0.5232754945755005
			],
			"translation":[
				-6.887004375457764,
				0.6480722427368164,
				-4.208200454711914
			]
		},
		{
			"extensions":{
				"KHR_lights_punctual":{
					"light":4
				}
			},
			"name":"Light.004",
			"rotation":[
				-0.28416627645492554,
				0.7269423007965088,
				0.34203392267227173,
				0.5232754945755005
			],
			"translation":[
				-6.887004375457764,
				9.024487495422363,
				3.7165446281433105
			]
		},
		{
			"extensions":{
				"KHR_lights_punctual":{
					"light":5
				}
			},
			"name":"Light.005",
			"rotation":[
				-0.28416627645492554,
				0.7269423007965088,
				0.34203392267227173,
				0.5232754945755005
			],
			"translation":[
				-6.887004375457764,
				-11.013213157653809,
				3.634423017501831
			]
		}
	],
	"cameras":[
		{
			"name":"Camera",
			"perspective":{
				"aspectRatio":1.7777777777777777,
				"yfov":0.39959652046304894,
				"zfar":100,
				"znear":0.10000000149011612
			},
			"type":"perspective"
		}
	],
	"animations":[
		{
			"channels":[
				{
					"sampler":0,
					"target":{
						"node":2,
						"path":"translation"
					}
				},
				{
					"sampler":1,
					"target":{
						"node":2,
						"path":"rotation"
					}
				},
				{
					"sampler":2,
					"target":{
						"node":2,
						"path":"scale"
					}
				}
			],
			"name":"shoot",
			"samplers":[
				{
					"input":4,
					"interpolation":"LINEAR",
					"output":5
				},
				{
					"input":4,
					"interpolation":"LINEAR",
					"output":6
				},
				{
					"input":7,
					"interpolation":"STEP",
					"output":8
				}
			]
		}
	],
	"materials":[
		{
			"doubleSided":true,
			"name":"Material.001"
		}
	],
	"meshes":[
		{
			"name":"Cylinder",
			"primitives":[
				{
					"attributes":{
						"POSITION":0,
						"NORMAL":1,
						"TEXCOORD_0":2
					},
					"indices":3,
					"material":0
				}
			]
		}
	],
	"accessors":[
		{
			"bufferView":0,
			"componentType":5126,
			"count":1708,
			"max":[
				1.313007116317749,
				9.968332290649414,
				2.3438990116119385
			],
			"min":[
				-1.3402249813079834,
				-1.31300687789917,
				-1.3266160488128662
			],
			"type":"VEC3"
		},
		{
			"bufferView":1,
			"componentType":5126,
			"count":1708,
			"type":"VEC3"
		},
		{
			"bufferView":2,
			"componentType":5126,
			"count":1708,
			"type":"VEC2"
		},
		{
			"bufferView":3,
			"componentType":5123,
			"count":3294,
			"type":"SCALAR"
		},
		{
			"bufferView":4,
			"componentType":5126,
			"count":29,
			"max":[
				1.2083333333333333
			],
			"min":[
				0.041666666666666664
			],
			"type":"SCALAR"
		},
		{
			"bufferView":5,
			"componentType":5126,
			"count":29,
			"type":"VEC3"
		},
		{
			"bufferView":6,
			"componentType":5126,
			"count":29,
			"type":"VEC4"
		},
		{
			"bufferView":7,
			"componentType":5126,
			"count":2,
			"max":[
				1.2083333333333333
			],
			"min":[
				0.041666666666666664
			],
			"type":"SCALAR"
		},
		{
			"bufferView":8,
			"componentType":5126,
			"count":2,
			"type":"VEC3"
		}
	],
	"bufferViews":[
		{
			"buffer":0,
			"byteLength":20496,
			"byteOffset":0,
			"target":34962
		},
		{
			"buffer":0,
			"byteLength":20496,
			"byteOffset":20496,
			"target":34962
		},
		{
			"buffer":0,
			"byteLength":13664,
			"byteOffset":40992,
			"target":34962
		},
		{
			"buffer":0,
			"byteLength":6588,
			"byteOffset":54656,
			"target":34963
		},
		{
			"buffer":0,
			"byteLength":116,
			"byteOffset":61244
		},
		{
			"buffer":0,
			"byteLength":348,
			"byteOffset":61360
		},
		{
			"buffer":0,
			"byteLength":464,
			"byteOffset":61708
		},
		{
			"buffer":0,
			"byteLength":8,
			"byteOffset":62172
		},
		{
			"buffer":0,
			"byteLength":24,
			"byteOffset":62180
		}
	],
	"buffers":[
		{
			"byteLength":62204,
			"uri":"rocketlamcher-ffdb905a02a094af73334de3fcbeec87.bin"
		}
	]
}
